HIERARCHY
ROOT Hips
{
    OFFSET   0.000000   0.000000   0.000000
    CHANNELS 6 Xposition Yposition Zposition Zrotation Xrotation Yrotation
    JOINT Chest
    {
        OFFSET   0.000000   8.007230   0.000000
        CHANNELS 3 Zrotation Xrotation Yrotation
        JOINT Chest2
        {
            OFFSET   0.000000  22.077100   0.000000
            CHANNELS 3 Zrotation Xrotation Yrotation
            JOINT Neck
            {
                OFFSET   0.000000  23.254800   0.000000
                CHANNELS 3 Zrotation Xrotation Yrotation
                JOINT Head
                {
                    OFFSET   0.000010  14.370000   1.956600
                    CHANNELS 3 Zrotation Xrotation Yrotation
                    End Site
                    {
                        OFFSET   0.000000  19.566000   0.000000
                    }
                }
            }
            JOINT LeftCollar
            {
                OFFSET   3.911900  19.017000  -0.467062
                CHANNELS 3 Zrotation Xrotation Yrotation
                JOINT LeftShoulder
                {
                    OFFSET  10.383700   0.000000   0.000000
                    CHANNELS 3 Zrotation Xrotation Yrotation
                    JOINT LeftElbow
                    {
                        OFFSET  26.662100   0.001193   0.000835
                        CHANNELS 3 Zrotation Xrotation Yrotation
                        JOINT LeftWrist
                        {
                            OFFSET  28.869000  -0.000058  -0.000075
                            CHANNELS 3 Zrotation Xrotation Yrotation
                            JOINT LeftFinger0
                            {
                                OFFSET   2.044660  -2.323460   3.252850
                                CHANNELS 3 Zrotation Xrotation Yrotation
                                JOINT LeftFinger01
                                {
                                    OFFSET   3.088130   0.000000   0.000000
                                    CHANNELS 3 Zrotation Xrotation Yrotation
                                    JOINT LeftFinger02
                                    {
                                        OFFSET   2.639450   0.000000   0.000000
                                        CHANNELS 3 Zrotation Xrotation Yrotation
                                        End Site
                                        {
                                            OFFSET   2.582190   0.000000   0.000000
                                        }
                                    }
                                }
                            }
                            JOINT LeftFinger1
                            {
                                OFFSET   8.364480   0.000000   3.252850
                                CHANNELS 3 Zrotation Xrotation Yrotation
                                JOINT LeftFinger11
                                {
                                    OFFSET   4.646920   0.000000   0.000000
                                    CHANNELS 3 Zrotation Xrotation Yrotation
                                    JOINT LeftFinger12
                                    {
                                        OFFSET   2.323460   0.000000   0.000000
                                        CHANNELS 3 Zrotation Xrotation Yrotation
                                        End Site
                                        {
                                            OFFSET   2.273050   0.000000   0.000000
                                        }
                                    }
                                }
                            }
                            JOINT LeftFinger2
                            {
                                OFFSET   8.364490   0.000016   1.078090
                                CHANNELS 3 Zrotation Xrotation Yrotation
                                JOINT LeftFinger21
                                {
                                    OFFSET   5.111620   0.000000   0.000000
                                    CHANNELS 3 Zrotation Xrotation Yrotation
                                    JOINT LeftFinger22
                                    {
                                        OFFSET   2.788150   0.000012   0.000000
                                        CHANNELS 3 Zrotation Xrotation Yrotation
                                        End Site
                                        {
                                            OFFSET   2.727660   0.000000   0.000000
                                        }
                                    }
                                }
                            }
                            JOINT LeftFinger3
                            {
                                OFFSET   7.899780   0.000014  -1.078090
                                CHANNELS 3 Zrotation Xrotation Yrotation
                                JOINT LeftFinger31
                                {
                                    OFFSET   4.646930   0.000000   0.000000
                                    CHANNELS 3 Zrotation Xrotation Yrotation
                                    JOINT LeftFinger32
                                    {
                                        OFFSET   2.323470   0.000000   0.000000
                                        CHANNELS 3 Zrotation Xrotation Yrotation
                                        End Site
                                        {
                                            OFFSET   2.273050   0.000000   0.000000
                                        }
                                    }
                                }
                            }
                            JOINT LeftFinger4
                            {
                                OFFSET   7.435090   0.000000  -3.252850
                                CHANNELS 3 Zrotation Xrotation Yrotation
                                JOINT LeftFinger41
                                {
                                    OFFSET   3.717550   0.000000   0.000000
                                    CHANNELS 3 Zrotation Xrotation Yrotation
                                    JOINT LeftFinger42
                                    {
                                        OFFSET   1.858770   0.000000   0.000000
                                        CHANNELS 3 Zrotation Xrotation Yrotation
                                        End Site
                                        {
                                            OFFSET   1.818440   0.000000   0.000000
                                        }
                                    }
                                }
                            }
                        }
                    }
                }
            }
            JOINT RightCollar
            {
                OFFSET  -3.911900  19.017000  -0.467063
                CHANNELS 3 Zrotation Xrotation Yrotation
                JOINT RightShoulder
                {
                    OFFSET -10.383700   0.000023   0.000000
                    CHANNELS 3 Zrotation Xrotation Yrotation
                    JOINT RightElbow
                    {
                        OFFSET -26.662100   0.001246   0.001011
                        CHANNELS 3 Zrotation Xrotation Yrotation
                        JOINT RightWrist
                        {
                            OFFSET -28.869000  -0.000026  -0.000078
                            CHANNELS 3 Zrotation Xrotation Yrotation
                            JOINT RightFinger0
                            {
                                OFFSET  -2.044660  -2.323490   3.252850
                                CHANNELS 3 Zrotation Xrotation Yrotation
                                JOINT RightFinger01
                                {
                                    OFFSET  -3.088130   0.000000   0.000000
                                    CHANNELS 3 Zrotation Xrotation Yrotation
                                    JOINT RightFinger02
                                    {
                                        OFFSET  -2.639460   0.000000   0.000000
                                        CHANNELS 3 Zrotation Xrotation Yrotation
                                        End Site
                                        {
                                            OFFSET  -2.582190   0.000000   0.000000
                                        }
                                    }
                                }
                            }
                            JOINT RightFinger1
                            {
                                OFFSET  -8.364480   0.000000   3.252850
                                CHANNELS 3 Zrotation Xrotation Yrotation
                                JOINT RightFinger11
                                {
                                    OFFSET  -4.646920   0.000000   0.000000
                                    CHANNELS 3 Zrotation Xrotation Yrotation
                                    JOINT RightFinger12
                                    {
                                        OFFSET  -2.323470   0.000000   0.000000
                                        CHANNELS 3 Zrotation Xrotation Yrotation
                                        End Site
                                        {
                                            OFFSET  -2.273050   0.000000   0.000000
                                        }
                                    }
                                }
                            }
                            JOINT RightFinger2
                            {
                                OFFSET  -8.364480   0.000000   1.078090
                                CHANNELS 3 Zrotation Xrotation Yrotation
                                JOINT RightFinger21
                                {
                                    OFFSET  -5.111620   0.000000   0.000000
                                    CHANNELS 3 Zrotation Xrotation Yrotation
                                    JOINT RightFinger22
                                    {
                                        OFFSET  -2.788160   0.000000   0.000000
                                        CHANNELS 3 Zrotation Xrotation Yrotation
                                        End Site
                                        {
                                            OFFSET  -2.727660   0.000000   0.000000
                                        }
                                    }
                                }
                            }
                            JOINT RightFinger3
                            {
                                OFFSET  -7.899780   0.000000  -1.078090
                                CHANNELS 3 Zrotation Xrotation Yrotation
                                JOINT RightFinger31
                                {
                                    OFFSET  -4.646930   0.000000   0.000000
                                    CHANNELS 3 Zrotation Xrotation Yrotation
                                    JOINT RightFinger32
                                    {
                                        OFFSET  -2.323470   0.000000   0.000000
                                        CHANNELS 3 Zrotation Xrotation Yrotation
                                        End Site
                                        {
                                            OFFSET  -2.273050   0.000000   0.000000
                                        }
                                    }
                                }
                            }
                            JOINT RightFinger4
                            {
                                OFFSET  -7.435090   0.000000  -3.252850
                                CHANNELS 3 Zrotation Xrotation Yrotation
                                JOINT RightFinger41
                                {
                                    OFFSET  -3.717550   0.000000   0.000000
                                    CHANNELS 3 Zrotation Xrotation Yrotation
                                    JOINT RightFinger42
                                    {
                                        OFFSET  -1.858760   0.000000   0.000000
                                        CHANNELS 3 Zrotation Xrotation Yrotation
                                        End Site
                                        {
                                            OFFSET  -1.818440   0.000000   0.000000
                                        }
                                    }
                                }
                            }
                        }
                    }
                }
            }
        }
    }
    JOINT LeftHip
    {
        OFFSET   9.783010   0.000000   0.000000
        CHANNELS 3 Zrotation Xrotation Yrotation
        JOINT LeftKnee
        {
            OFFSET   0.000073 -41.789100   0.001749
            CHANNELS 3 Zrotation Xrotation Yrotation
            JOINT LeftAnkle
            {
                OFFSET   0.000111 -41.133200  -0.000179
                CHANNELS 3 Zrotation Xrotation Yrotation
                JOINT LeftToe
                {
                    OFFSET   0.000000  -6.358960  14.674500
                    CHANNELS 3 Zrotation Xrotation Yrotation
                    End Site
                    {
                        OFFSET   0.000000   0.000000   3.913200
                    }
                }
            }
        }
    }
    JOINT RightHip
    {
        OFFSET  -9.783010   0.000000   0.000000
        CHANNELS 3 Zrotation Xrotation Yrotation
        JOINT RightKnee
        {
            OFFSET   0.000424 -41.789200   0.005205
            CHANNELS 3 Zrotation Xrotation Yrotation
            JOINT RightAnkle
            {
                OFFSET   0.000000 -41.133200  -0.000155
                CHANNELS 3 Zrotation Xrotation Yrotation
                JOINT RightToe
                {
                    OFFSET   0.000000  -6.358960  14.674500
                    CHANNELS 3 Zrotation Xrotation Yrotation
                    End Site
                    {
                        OFFSET   0.000000   0.000000   3.913200
                    }
                }
            }
        }
    }
}
MOTION
Frames: 4
Frame Time:   0.016667
 -0.055718  89.506200  -0.128273  -2.883230  -5.601020  -4.731100   0.880602   2.147190   0.294574   1.751990   4.298600   0.556648   0.909138   1.900430  -0.031070   1.498610   3.850520  -0.751611  -1.499470  -3.138780   2.794200 -79.537300  16.101800   5.170390  -0.500149  -5.157080 -15.054800  15.340900 -16.475700   9.035490  46.747700  44.450400 -82.157200 -30.581100   0.001660   0.014359 -10.290600   0.000833   0.006164 -37.386700   5.190610  -6.762460 -30.840900  -0.000927  -0.001281 -21.588600   0.004451  -0.008668 -31.357500  -2.377830   3.894930 -47.156900  -0.003217  -0.006570 -31.408200   0.000111  -0.014568 -31.340300  -2.376680   3.895630 -47.143000   0.000934  -0.013095 -31.389700   0.001283   0.000423 -40.828600  -2.986700   3.450550 -61.379000   0.002666  -0.001006 -40.878400   0.008988  -0.005947   6.124250   0.540527   2.714680  75.081700   5.061100  -7.496240   0.116859 -10.850300  10.494000 -15.698100  -7.702990  -1.605200 -34.489600  30.228900  66.847300  34.429200   0.007356  -0.006864  12.214600   0.002236  -0.002804  36.009000   3.032650   4.163410  29.561900   0.002462   0.000061  20.693400   0.004202  -0.004462  29.782900  -1.038800  -1.814390  44.699000  -0.003628   0.002303  29.769600   0.001534   0.001605  28.760500  -1.347550  -2.453040  42.141800  -0.006970   0.009246  28.066500   0.002012   0.009562  35.220500  -2.816730  -3.981900  52.977700   0.002113  -0.008287  35.283200  -0.001241  -0.002698   1.432380   9.101960   3.516520   1.151910   0.310258   6.121840  -2.103800  -4.491150   2.030960   0.000000   0.000000   0.000000   2.754730   7.928630  -5.391360  -0.269097   1.582970  -5.946960   0.247822  -4.600480   2.868920   0.000000   0.000000  -0.000000
 -0.060584  89.506200  -0.136650  -2.883120  -5.601020  -4.731190   0.880400   2.147460   0.305870   1.751160   4.299210   0.579296   0.922421   1.919070  -0.031378   1.520490   3.887730  -0.752282  -1.502730  -3.150980   2.780910 -79.535700  16.086500   5.169280  -0.493561  -5.155100 -15.049600  15.339700 -16.476000   9.029160  46.768500  44.469500 -82.185800 -30.576300   0.001663   0.014365 -10.288100   0.000837   0.006169 -37.385800   5.196330  -6.765510 -30.840500  -0.000930  -0.001284 -21.588300   0.004453  -0.008668 -31.357600  -2.374550   3.889640 -47.156900  -0.003216  -0.006562 -31.407800   0.000106  -0.014568 -31.341800  -2.373530   3.890260 -47.141300   0.000933  -0.013093 -31.390900   0.001277   0.000433 -40.829100  -2.982540   3.445910 -61.379000   0.002663  -0.000999 -40.878400   0.008983  -0.005946   6.125800   0.518275   2.700340  75.097200   5.096730  -7.507250   0.109477 -10.865700  10.494300 -15.697500  -7.705190  -1.601200 -34.499200  30.248300  66.873500  34.419300   0.007353  -0.006864  12.209600   0.002239  -0.002815  36.012000   3.044140   4.178320  29.561900   0.002457   0.000073  20.693400   0.004206  -0.004456  29.792300  -1.029440  -1.797390  44.712600  -0.003624   0.002300  29.778600   0.001534   0.001599  28.761300  -1.338960  -2.437360  42.156700  -0.006967   0.009243  28.076400   0.002006   0.009556  35.230000  -2.804650  -3.963170  52.990400   0.002118  -0.008276  35.291700  -0.001243  -0.002694   1.436560   9.100150   3.516520   1.152460   0.306715   6.122230  -2.109610  -4.480930   2.030690  -0.000000   0.000000  -0.000000   2.758380   7.920680  -5.395600  -0.269136   1.582240  -5.939650   0.242561  -4.592540   2.865540  -0.000000   0.000000   0.000000
 -0.069138  89.506200  -0.150403  -2.882950  -5.601020  -4.731360   0.879974   2.149400   0.325225   1.749580   4.303550   0.618036   0.943915   1.949710  -0.032085   1.556000   3.949280  -0.752977  -1.510960  -3.175050   2.758270 -79.532900  16.071300   5.163880  -0.482613  -5.153110 -15.044300  15.340500 -16.476400   9.018360  46.805000  44.501300 -82.236600 -30.566300   0.001667   0.014374 -10.283100   0.000845   0.006179 -37.383700   5.207230  -6.773700 -30.840200  -0.000935  -0.001286 -21.588100   0.004455  -0.008667 -31.358000  -2.368790   3.880100 -47.156900  -0.003214  -0.006542 -31.407500   0.000088  -0.014568 -31.346100  -2.368000   3.880580 -47.139500   0.000929  -0.013086 -31.394900   0.001263   0.000460 -40.830000  -2.975220   3.437500 -61.379000   0.002654  -0.000978 -40.878400   0.008968  -0.005942   6.128530   0.472026   2.679080  75.119600   5.179420  -7.525590   0.100168 -10.881200  10.493400 -15.696400  -7.709630  -1.592920 -34.512300  30.282900  66.918800  34.409400   0.007350  -0.006865  12.204700   0.002244  -0.002826  36.019400   3.055630   4.193230  29.561900   0.002446   0.000105  20.693400   0.004219  -0.004441  29.801600  -1.020090  -1.780390  44.726100  -0.003613   0.002296  29.787600   0.001531   0.001579  28.762000  -1.330370  -2.421690  42.171600  -0.006960   0.009230  28.086300   0.001990   0.009542  35.244100  -2.792560  -3.944440  53.010400   0.002127  -0.008254  35.305000  -0.001248  -0.002681   1.443690   9.097330   3.516520   1.153820   0.303170   6.125030  -2.119480  -4.470710   2.030240   0.000000   0.000000  -0.000000   2.765370   7.912700  -5.402150  -0.269246   1.581520  -5.927330   0.233736  -4.581720   2.859790  -0.000000   0.000000  -0.000000
 -0.077148  89.506200  -0.161064  -2.883390  -5.608300  -4.731650   0.879312   2.158190   0.343200   1.747150   4.321520   0.653909   0.960352   1.973160  -0.033105   1.583160   3.997300  -0.751993  -1.522490  -3.202950   2.734100 -79.529200  16.083800   5.146850  -0.474982  -5.160030 -15.044400  15.346600 -16.468000   9.008790  46.851700  44.532600 -82.296000 -30.550600   0.001670   0.014379 -10.275300   0.000859   0.006191 -37.384800   5.220180  -6.790060 -30.842000  -0.000941  -0.001284 -21.589400   0.004452  -0.008668 -31.360700  -2.362890   3.868430 -47.160200  -0.003214  -0.006512 -31.409300   0.000047  -0.014567 -31.354000  -2.362450   3.868710 -47.148700   0.000921  -0.013074 -31.402400   0.001241   0.000500 -40.833400  -2.966760   3.427040 -61.383100   0.002639  -0.000945 -40.881100   0.008944  -0.005934   6.130060   0.413446   2.665700  75.135700   5.298100  -7.543490   0.096853 -10.876300  10.491000 -15.695100  -7.716390  -1.579770 -34.516000  30.324900  66.968700  34.417900   0.007357  -0.006857  12.208900   0.002248  -0.002824  36.032800   3.054700   4.190380  29.571100   0.002430   0.000154  20.699800   0.004238  -0.004420  29.799600  -1.021340  -1.782530  44.726100  -0.003591   0.002298  29.785600   0.001525   0.001546  28.762000  -1.330690  -2.422280  42.171500  -0.006949   0.009204  28.086300   0.001968   0.009520  35.254800  -2.795880  -3.947990  53.026700   0.002135  -0.008225  35.315800  -0.001254  -0.002659   1.450400   9.095200   3.509800   1.154910   0.321151   6.134210  -2.128700  -4.471240   2.029740  -0.000000   0.000000   0.000000   2.772380   7.913680  -5.407020  -0.269192   1.584710  -5.914670   0.226489  -4.578150   2.855030   0.000000   0.000000   0.000000
